<?xml version="1.0" encoding="utf-8" standalone="no"?>
<!DOCTYPE svg PUBLIC "-//W3C//DTD SVG 1.1//EN"
  "http://www.w3.org/Graphics/SVG/1.1/DTD/svg11.dtd">
<!-- Created with matplotlib (http://matplotlib.org/) -->
<svg height="633pt" version="1.1" viewBox="0 0 921 633" width="921pt" xmlns="http://www.w3.org/2000/svg" xmlns:xlink="http://www.w3.org/1999/xlink">
 <defs>
  <style type="text/css">
*{stroke-linecap:butt;stroke-linejoin:round;}
  </style>
 </defs>
 <g id="figure_1">
  <g id="patch_1">
   <path d="M 0 633.6 
L 921.6 633.6 
L 921.6 0 
L 0 0 
z
" style="fill:#ffffff;"/>
  </g>
  <g id="axes_1">
   <g id="patch_2">
    <path d="M 115.2 563.904 
L 829.44 563.904 
L 829.44 76.032 
L 115.2 76.032 
z
" style="fill:#ffffff;"/>
   </g>
   <g id="matplotlib.axis_1">
    <g id="xtick_1">
     <g id="line2d_1">
      <path clip-path="url(#pd4d2102336)" d="M 115.2 563.904 
L 115.2 76.032 
" style="fill:none;stroke:#b0b0b0;stroke-linecap:square;stroke-width:1.6;"/>
     </g>
     <g id="line2d_2">
      <defs>
       <path d="M 0 0 
L 0 3.5 
" id="m44c674a2a0" style="stroke:#000000;stroke-width:1.6;"/>
      </defs>
      <g>
       <use style="stroke:#000000;stroke-width:1.6;" x="115.2" xlink:href="#m44c674a2a0" y="563.904"/>
      </g>
     </g>
     <g id="text_1">
      <!-- 0 -->
      <defs>
       <path d="M 50.484375 30.328125 
Q 50.484375 14.453125 45.0625 6.734375 
Q 39.65625 -0.984375 28.125 -0.984375 
Q 16.75 -0.984375 11.28125 6.5625 
Q 5.8125 14.109375 5.609375 29.109375 
L 5.609375 41.15625 
Q 5.609375 56.84375 11.03125 64.453125 
Q 16.453125 72.078125 28.03125 72.078125 
Q 39.5 72.078125 44.921875 64.71875 
Q 50.34375 57.375 50.484375 42.046875 
z
M 41.453125 42.671875 
Q 41.453125 54.15625 38.234375 59.40625 
Q 35.015625 64.65625 28.03125 64.65625 
Q 21.09375 64.65625 17.921875 59.421875 
Q 14.75 54.203125 14.65625 43.359375 
L 14.65625 28.90625 
Q 14.65625 17.390625 18 11.890625 
Q 21.34375 6.390625 28.125 6.390625 
Q 34.8125 6.390625 38.0625 11.5625 
Q 41.3125 16.75 41.453125 27.875 
z
" id="Roboto-Regular-30"/>
      </defs>
      <g transform="translate(110.7075 590.604)scale(0.16 -0.16)">
       <use xlink:href="#Roboto-Regular-30"/>
      </g>
     </g>
    </g>
    <g id="xtick_2">
     <g id="line2d_3">
      <path clip-path="url(#pd4d2102336)" d="M 258.048 563.904 
L 258.048 76.032 
" style="fill:none;stroke:#b0b0b0;stroke-linecap:square;stroke-width:1.6;"/>
     </g>
     <g id="line2d_4">
      <g>
       <use style="stroke:#000000;stroke-width:1.6;" x="258.048" xlink:href="#m44c674a2a0" y="563.904"/>
      </g>
     </g>
     <g id="text_2">
      <!-- 10 -->
      <defs>
       <path d="M 35.59375 0 
L 26.515625 0 
L 26.515625 60.203125 
L 8.296875 53.515625 
L 8.296875 61.71875 
L 34.1875 71.4375 
L 35.59375 71.4375 
z
" id="Roboto-Regular-31"/>
      </defs>
      <g transform="translate(249.063 590.604)scale(0.16 -0.16)">
       <use xlink:href="#Roboto-Regular-31"/>
       <use x="56.152344" xlink:href="#Roboto-Regular-30"/>
      </g>
     </g>
    </g>
    <g id="xtick_3">
     <g id="line2d_5">
      <path clip-path="url(#pd4d2102336)" d="M 400.896 563.904 
L 400.896 76.032 
" style="fill:none;stroke:#b0b0b0;stroke-linecap:square;stroke-width:1.6;"/>
     </g>
     <g id="line2d_6">
      <g>
       <use style="stroke:#000000;stroke-width:1.6;" x="400.896" xlink:href="#m44c674a2a0" y="563.904"/>
      </g>
     </g>
     <g id="text_3">
      <!-- 20 -->
      <defs>
       <path d="M 52.484375 0 
L 5.90625 0 
L 5.90625 6.5 
L 30.515625 33.84375 
Q 35.984375 40.046875 38.0625 43.921875 
Q 40.140625 47.796875 40.140625 51.953125 
Q 40.140625 57.515625 36.765625 61.078125 
Q 33.40625 64.65625 27.78125 64.65625 
Q 21.046875 64.65625 17.3125 60.8125 
Q 13.578125 56.984375 13.578125 50.140625 
L 4.546875 50.140625 
Q 4.546875 59.96875 10.859375 66.015625 
Q 17.1875 72.078125 27.78125 72.078125 
Q 37.703125 72.078125 43.453125 66.875 
Q 49.21875 61.671875 49.21875 53.03125 
Q 49.21875 42.53125 35.84375 28.03125 
L 16.796875 7.375 
L 52.484375 7.375 
z
" id="Roboto-Regular-32"/>
      </defs>
      <g transform="translate(391.911 590.604)scale(0.16 -0.16)">
       <use xlink:href="#Roboto-Regular-32"/>
       <use x="56.152344" xlink:href="#Roboto-Regular-30"/>
      </g>
     </g>
    </g>
    <g id="xtick_4">
     <g id="line2d_7">
      <path clip-path="url(#pd4d2102336)" d="M 543.744 563.904 
L 543.744 76.032 
" style="fill:none;stroke:#b0b0b0;stroke-linecap:square;stroke-width:1.6;"/>
     </g>
     <g id="line2d_8">
      <g>
       <use style="stroke:#000000;stroke-width:1.6;" x="543.744" xlink:href="#m44c674a2a0" y="563.904"/>
      </g>
     </g>
     <g id="text_4">
      <!-- 30 -->
      <defs>
       <path d="M 19.046875 39.9375 
L 25.828125 39.9375 
Q 32.234375 40.046875 35.890625 43.3125 
Q 39.546875 46.578125 39.546875 52.15625 
Q 39.546875 64.65625 27.09375 64.65625 
Q 21.234375 64.65625 17.75 61.296875 
Q 14.265625 57.953125 14.265625 52.4375 
L 5.21875 52.4375 
Q 5.21875 60.890625 11.390625 66.484375 
Q 17.578125 72.078125 27.09375 72.078125 
Q 37.15625 72.078125 42.859375 66.75 
Q 48.578125 61.421875 48.578125 51.953125 
Q 48.578125 47.3125 45.578125 42.96875 
Q 42.578125 38.625 37.40625 36.46875 
Q 43.265625 34.625 46.453125 30.328125 
Q 49.65625 26.03125 49.65625 19.828125 
Q 49.65625 10.25 43.40625 4.625 
Q 37.15625 -0.984375 27.140625 -0.984375 
Q 17.140625 -0.984375 10.859375 4.4375 
Q 4.59375 9.859375 4.59375 18.75 
L 13.671875 18.75 
Q 13.671875 13.140625 17.328125 9.765625 
Q 21 6.390625 27.15625 6.390625 
Q 33.6875 6.390625 37.15625 9.8125 
Q 40.625 13.234375 40.625 19.625 
Q 40.625 25.828125 36.8125 29.140625 
Q 33.015625 32.46875 25.828125 32.5625 
L 19.046875 32.5625 
z
" id="Roboto-Regular-33"/>
      </defs>
      <g transform="translate(534.759 590.604)scale(0.16 -0.16)">
       <use xlink:href="#Roboto-Regular-33"/>
       <use x="56.152344" xlink:href="#Roboto-Regular-30"/>
      </g>
     </g>
    </g>
    <g id="xtick_5">
     <g id="line2d_9">
      <path clip-path="url(#pd4d2102336)" d="M 686.592 563.904 
L 686.592 76.032 
" style="fill:none;stroke:#b0b0b0;stroke-linecap:square;stroke-width:1.6;"/>
     </g>
     <g id="line2d_10">
      <g>
       <use style="stroke:#000000;stroke-width:1.6;" x="686.592" xlink:href="#m44c674a2a0" y="563.904"/>
      </g>
     </g>
     <g id="text_5">
      <!-- 40 -->
      <defs>
       <path d="M 44.046875 23.875 
L 53.90625 23.875 
L 53.90625 16.5 
L 44.046875 16.5 
L 44.046875 0 
L 34.96875 0 
L 34.96875 16.5 
L 2.59375 16.5 
L 2.59375 21.828125 
L 34.421875 71.09375 
L 44.046875 71.09375 
z
M 12.84375 23.875 
L 34.96875 23.875 
L 34.96875 58.734375 
L 33.890625 56.78125 
z
" id="Roboto-Regular-34"/>
      </defs>
      <g transform="translate(677.607 590.604)scale(0.16 -0.16)">
       <use xlink:href="#Roboto-Regular-34"/>
       <use x="56.152344" xlink:href="#Roboto-Regular-30"/>
      </g>
     </g>
    </g>
    <g id="xtick_6">
     <g id="line2d_11">
      <path clip-path="url(#pd4d2102336)" d="M 829.44 563.904 
L 829.44 76.032 
" style="fill:none;stroke:#b0b0b0;stroke-linecap:square;stroke-width:1.6;"/>
     </g>
     <g id="line2d_12">
      <g>
       <use style="stroke:#000000;stroke-width:1.6;" x="829.44" xlink:href="#m44c674a2a0" y="563.904"/>
      </g>
     </g>
     <g id="text_6">
      <!-- 50 -->
      <defs>
       <path d="M 10.0625 35.640625 
L 13.671875 71.09375 
L 50.09375 71.09375 
L 50.09375 62.75 
L 21.34375 62.75 
L 19.1875 43.359375 
Q 24.421875 46.4375 31.0625 46.4375 
Q 40.765625 46.4375 46.484375 40.015625 
Q 52.203125 33.59375 52.203125 22.65625 
Q 52.203125 11.671875 46.265625 5.34375 
Q 40.328125 -0.984375 29.6875 -0.984375 
Q 20.265625 -0.984375 14.296875 4.234375 
Q 8.34375 9.46875 7.515625 18.703125 
L 16.0625 18.703125 
Q 16.890625 12.59375 20.40625 9.484375 
Q 23.921875 6.390625 29.6875 6.390625 
Q 35.984375 6.390625 39.578125 10.6875 
Q 43.171875 14.984375 43.171875 22.5625 
Q 43.171875 29.6875 39.28125 34 
Q 35.40625 38.328125 28.953125 38.328125 
Q 23.046875 38.328125 19.671875 35.75 
L 17.28125 33.796875 
z
" id="Roboto-Regular-35"/>
      </defs>
      <g transform="translate(820.455 590.604)scale(0.16 -0.16)">
       <use xlink:href="#Roboto-Regular-35"/>
       <use x="56.152344" xlink:href="#Roboto-Regular-30"/>
      </g>
     </g>
    </g>
    <g id="text_7">
     <!-- Time (s) -->
     <defs>
      <path d="M 57.375 63.375 
L 34.515625 63.375 
L 34.515625 0 
L 25.203125 0 
L 25.203125 63.375 
L 2.390625 63.375 
L 2.390625 71.09375 
L 57.375 71.09375 
z
" id="Roboto-Regular-54"/>
      <path d="M 16.65625 0 
L 7.625 0 
L 7.625 52.828125 
L 16.65625 52.828125 
z
M 6.890625 66.84375 
Q 6.890625 69.046875 8.234375 70.5625 
Q 9.578125 72.078125 12.203125 72.078125 
Q 14.84375 72.078125 16.203125 70.5625 
Q 17.578125 69.046875 17.578125 66.84375 
Q 17.578125 64.65625 16.203125 63.1875 
Q 14.84375 61.71875 12.203125 61.71875 
Q 9.578125 61.71875 8.234375 63.1875 
Q 6.890625 64.65625 6.890625 66.84375 
z
" id="Roboto-Regular-69"/>
      <path d="M 15.328125 52.828125 
L 15.578125 46.96875 
Q 21.390625 53.8125 31.25 53.8125 
Q 42.328125 53.8125 46.34375 45.3125 
Q 48.96875 49.125 53.1875 51.46875 
Q 57.421875 53.8125 63.1875 53.8125 
Q 80.5625 53.8125 80.859375 35.40625 
L 80.859375 0 
L 71.828125 0 
L 71.828125 34.859375 
Q 71.828125 40.53125 69.234375 43.328125 
Q 66.65625 46.140625 60.546875 46.140625 
Q 55.515625 46.140625 52.1875 43.140625 
Q 48.875 40.140625 48.34375 35.0625 
L 48.34375 0 
L 39.265625 0 
L 39.265625 34.625 
Q 39.265625 46.140625 27.984375 46.140625 
Q 19.09375 46.140625 15.828125 38.578125 
L 15.828125 0 
L 6.78125 0 
L 6.78125 52.828125 
z
" id="Roboto-Regular-6d"/>
      <path d="M 28.765625 -0.984375 
Q 18.015625 -0.984375 11.28125 6.078125 
Q 4.546875 13.140625 4.546875 24.953125 
L 4.546875 26.609375 
Q 4.546875 34.46875 7.546875 40.640625 
Q 10.546875 46.828125 15.9375 50.3125 
Q 21.34375 53.8125 27.640625 53.8125 
Q 37.9375 53.8125 43.640625 47.015625 
Q 49.359375 40.234375 49.359375 27.59375 
L 49.359375 23.828125 
L 13.578125 23.828125 
Q 13.765625 16.015625 18.140625 11.203125 
Q 22.515625 6.390625 29.25 6.390625 
Q 34.03125 6.390625 37.34375 8.34375 
Q 40.671875 10.296875 43.171875 13.53125 
L 48.6875 9.234375 
Q 42.046875 -0.984375 28.765625 -0.984375 
z
M 27.640625 46.390625 
Q 22.171875 46.390625 18.453125 42.40625 
Q 14.75 38.421875 13.875 31.25 
L 40.328125 31.25 
L 40.328125 31.9375 
Q 39.9375 38.8125 36.609375 42.59375 
Q 33.296875 46.390625 27.640625 46.390625 
z
" id="Roboto-Regular-65"/>
      <path id="Roboto-Regular-20"/>
      <path d="M 6.5 28.859375 
Q 6.5 39.890625 9.453125 50.046875 
Q 12.40625 60.203125 18.265625 68.5 
Q 24.125 76.8125 30.421875 80.21875 
L 32.28125 74.265625 
Q 25.140625 68.796875 20.578125 57.5625 
Q 16.015625 46.34375 15.578125 32.421875 
L 15.53125 28.265625 
Q 15.53125 9.421875 22.40625 -4.4375 
Q 26.5625 -12.75 32.28125 -17.4375 
L 30.421875 -22.953125 
Q 23.921875 -19.34375 18.015625 -10.84375 
Q 6.5 5.765625 6.5 28.859375 
z
" id="Roboto-Regular-28"/>
      <path d="M 37.59375 14.015625 
Q 37.59375 17.671875 34.828125 19.703125 
Q 32.078125 21.734375 25.21875 23.1875 
Q 18.359375 24.65625 14.328125 26.703125 
Q 10.296875 28.765625 8.375 31.59375 
Q 6.453125 34.421875 6.453125 38.328125 
Q 6.453125 44.828125 11.9375 49.3125 
Q 17.4375 53.8125 25.984375 53.8125 
Q 34.96875 53.8125 40.546875 49.171875 
Q 46.140625 44.53125 46.140625 37.3125 
L 37.0625 37.3125 
Q 37.0625 41.015625 33.90625 43.703125 
Q 30.765625 46.390625 25.984375 46.390625 
Q 21.046875 46.390625 18.265625 44.234375 
Q 15.484375 42.09375 15.484375 38.625 
Q 15.484375 35.359375 18.0625 33.6875 
Q 20.65625 32.03125 27.421875 30.515625 
Q 34.1875 29 38.375 26.90625 
Q 42.578125 24.8125 44.59375 21.84375 
Q 46.625 18.890625 46.625 14.65625 
Q 46.625 7.5625 40.953125 3.28125 
Q 35.296875 -0.984375 26.265625 -0.984375 
Q 19.921875 -0.984375 15.03125 1.265625 
Q 10.15625 3.515625 7.390625 7.546875 
Q 4.640625 11.578125 4.640625 16.265625 
L 13.671875 16.265625 
Q 13.921875 11.71875 17.3125 9.046875 
Q 20.703125 6.390625 26.265625 6.390625 
Q 31.390625 6.390625 34.484375 8.46875 
Q 37.59375 10.546875 37.59375 14.015625 
z
" id="Roboto-Regular-73"/>
      <path d="M 27.6875 28.375 
Q 27.6875 17.484375 24.828125 7.5 
Q 21.96875 -2.484375 16.078125 -10.9375 
Q 10.203125 -19.390625 3.765625 -22.953125 
L 1.859375 -17.4375 
Q 9.375 -11.671875 13.9375 0.453125 
Q 18.5 12.59375 18.609375 27.390625 
L 18.609375 28.953125 
Q 18.609375 39.203125 16.453125 48.015625 
Q 14.3125 56.84375 10.46875 63.8125 
Q 6.640625 70.796875 1.859375 74.703125 
L 3.765625 80.21875 
Q 10.203125 76.65625 16.03125 68.3125 
Q 21.875 59.96875 24.78125 49.90625 
Q 27.6875 39.84375 27.6875 28.375 
z
" id="Roboto-Regular-29"/>
     </defs>
     <g transform="translate(439.775125 611.9725)scale(0.176 -0.176)">
      <use xlink:href="#Roboto-Regular-54"/>
      <use x="59.667969" xlink:href="#Roboto-Regular-69"/>
      <use x="83.935547" xlink:href="#Roboto-Regular-6d"/>
      <use x="171.582031" xlink:href="#Roboto-Regular-65"/>
      <use x="224.560547" xlink:href="#Roboto-Regular-20"/>
      <use x="249.316406" xlink:href="#Roboto-Regular-28"/>
      <use x="283.496094" xlink:href="#Roboto-Regular-73"/>
      <use x="335.058594" xlink:href="#Roboto-Regular-29"/>
     </g>
    </g>
   </g>
   <g id="matplotlib.axis_2">
    <g id="ytick_1">
     <g id="line2d_13">
      <path clip-path="url(#pd4d2102336)" d="M 115.2 563.904 
L 829.44 563.904 
" style="fill:none;stroke:#b0b0b0;stroke-linecap:square;stroke-width:1.6;"/>
     </g>
     <g id="line2d_14">
      <defs>
       <path d="M 0 0 
L -3.5 0 
" id="m2e9c534864" style="stroke:#000000;stroke-width:1.6;"/>
      </defs>
      <g>
       <use style="stroke:#000000;stroke-width:1.6;" x="115.2" xlink:href="#m2e9c534864" y="563.904"/>
      </g>
     </g>
     <g id="text_8">
      <!-- 0 -->
      <g transform="translate(91.515 569.904)scale(0.16 -0.16)">
       <use xlink:href="#Roboto-Regular-30"/>
      </g>
     </g>
    </g>
    <g id="ytick_2">
     <g id="line2d_15">
      <path clip-path="url(#pd4d2102336)" d="M 115.2 509.696 
L 829.44 509.696 
" style="fill:none;stroke:#b0b0b0;stroke-linecap:square;stroke-width:1.6;"/>
     </g>
     <g id="line2d_16">
      <g>
       <use style="stroke:#000000;stroke-width:1.6;" x="115.2" xlink:href="#m2e9c534864" y="509.696"/>
      </g>
     </g>
     <g id="text_9">
      <!-- 50 -->
      <g transform="translate(82.53 515.696)scale(0.16 -0.16)">
       <use xlink:href="#Roboto-Regular-35"/>
       <use x="56.152344" xlink:href="#Roboto-Regular-30"/>
      </g>
     </g>
    </g>
    <g id="ytick_3">
     <g id="line2d_17">
      <path clip-path="url(#pd4d2102336)" d="M 115.2 455.488 
L 829.44 455.488 
" style="fill:none;stroke:#b0b0b0;stroke-linecap:square;stroke-width:1.6;"/>
     </g>
     <g id="line2d_18">
      <g>
       <use style="stroke:#000000;stroke-width:1.6;" x="115.2" xlink:href="#m2e9c534864" y="455.488"/>
      </g>
     </g>
     <g id="text_10">
      <!-- 100 -->
      <g transform="translate(73.545 461.488)scale(0.16 -0.16)">
       <use xlink:href="#Roboto-Regular-31"/>
       <use x="56.152344" xlink:href="#Roboto-Regular-30"/>
       <use x="112.304688" xlink:href="#Roboto-Regular-30"/>
      </g>
     </g>
    </g>
    <g id="ytick_4">
     <g id="line2d_19">
      <path clip-path="url(#pd4d2102336)" d="M 115.2 401.28 
L 829.44 401.28 
" style="fill:none;stroke:#b0b0b0;stroke-linecap:square;stroke-width:1.6;"/>
     </g>
     <g id="line2d_20">
      <g>
       <use style="stroke:#000000;stroke-width:1.6;" x="115.2" xlink:href="#m2e9c534864" y="401.28"/>
      </g>
     </g>
     <g id="text_11">
      <!-- 150 -->
      <g transform="translate(73.545 407.28)scale(0.16 -0.16)">
       <use xlink:href="#Roboto-Regular-31"/>
       <use x="56.152344" xlink:href="#Roboto-Regular-35"/>
       <use x="112.304688" xlink:href="#Roboto-Regular-30"/>
      </g>
     </g>
    </g>
    <g id="ytick_5">
     <g id="line2d_21">
      <path clip-path="url(#pd4d2102336)" d="M 115.2 347.072 
L 829.44 347.072 
" style="fill:none;stroke:#b0b0b0;stroke-linecap:square;stroke-width:1.6;"/>
     </g>
     <g id="line2d_22">
      <g>
       <use style="stroke:#000000;stroke-width:1.6;" x="115.2" xlink:href="#m2e9c534864" y="347.072"/>
      </g>
     </g>
     <g id="text_12">
      <!-- 200 -->
      <g transform="translate(73.545 353.072)scale(0.16 -0.16)">
       <use xlink:href="#Roboto-Regular-32"/>
       <use x="56.152344" xlink:href="#Roboto-Regular-30"/>
       <use x="112.304688" xlink:href="#Roboto-Regular-30"/>
      </g>
     </g>
    </g>
    <g id="ytick_6">
     <g id="line2d_23">
      <path clip-path="url(#pd4d2102336)" d="M 115.2 292.864 
L 829.44 292.864 
" style="fill:none;stroke:#b0b0b0;stroke-linecap:square;stroke-width:1.6;"/>
     </g>
     <g id="line2d_24">
      <g>
       <use style="stroke:#000000;stroke-width:1.6;" x="115.2" xlink:href="#m2e9c534864" y="292.864"/>
      </g>
     </g>
     <g id="text_13">
      <!-- 250 -->
      <g transform="translate(73.545 298.864)scale(0.16 -0.16)">
       <use xlink:href="#Roboto-Regular-32"/>
       <use x="56.152344" xlink:href="#Roboto-Regular-35"/>
       <use x="112.304688" xlink:href="#Roboto-Regular-30"/>
      </g>
     </g>
    </g>
    <g id="ytick_7">
     <g id="line2d_25">
      <path clip-path="url(#pd4d2102336)" d="M 115.2 238.656 
L 829.44 238.656 
" style="fill:none;stroke:#b0b0b0;stroke-linecap:square;stroke-width:1.6;"/>
     </g>
     <g id="line2d_26">
      <g>
       <use style="stroke:#000000;stroke-width:1.6;" x="115.2" xlink:href="#m2e9c534864" y="238.656"/>
      </g>
     </g>
     <g id="text_14">
      <!-- 300 -->
      <g transform="translate(73.545 244.656)scale(0.16 -0.16)">
       <use xlink:href="#Roboto-Regular-33"/>
       <use x="56.152344" xlink:href="#Roboto-Regular-30"/>
       <use x="112.304688" xlink:href="#Roboto-Regular-30"/>
      </g>
     </g>
    </g>
    <g id="ytick_8">
     <g id="line2d_27">
      <path clip-path="url(#pd4d2102336)" d="M 115.2 184.448 
L 829.44 184.448 
" style="fill:none;stroke:#b0b0b0;stroke-linecap:square;stroke-width:1.6;"/>
     </g>
     <g id="line2d_28">
      <g>
       <use style="stroke:#000000;stroke-width:1.6;" x="115.2" xlink:href="#m2e9c534864" y="184.448"/>
      </g>
     </g>
     <g id="text_15">
      <!-- 350 -->
      <g transform="translate(73.545 190.448)scale(0.16 -0.16)">
       <use xlink:href="#Roboto-Regular-33"/>
       <use x="56.152344" xlink:href="#Roboto-Regular-35"/>
       <use x="112.304688" xlink:href="#Roboto-Regular-30"/>
      </g>
     </g>
    </g>
    <g id="ytick_9">
     <g id="line2d_29">
      <path clip-path="url(#pd4d2102336)" d="M 115.2 130.24 
L 829.44 130.24 
" style="fill:none;stroke:#b0b0b0;stroke-linecap:square;stroke-width:1.6;"/>
     </g>
     <g id="line2d_30">
      <g>
       <use style="stroke:#000000;stroke-width:1.6;" x="115.2" xlink:href="#m2e9c534864" y="130.24"/>
      </g>
     </g>
     <g id="text_16">
      <!-- 400 -->
      <g transform="translate(73.545 136.24)scale(0.16 -0.16)">
       <use xlink:href="#Roboto-Regular-34"/>
       <use x="56.152344" xlink:href="#Roboto-Regular-30"/>
       <use x="112.304688" xlink:href="#Roboto-Regular-30"/>
      </g>
     </g>
    </g>
    <g id="ytick_10">
     <g id="line2d_31">
      <path clip-path="url(#pd4d2102336)" d="M 115.2 76.032 
L 829.44 76.032 
" style="fill:none;stroke:#b0b0b0;stroke-linecap:square;stroke-width:1.6;"/>
     </g>
     <g id="line2d_32">
      <g>
       <use style="stroke:#000000;stroke-width:1.6;" x="115.2" xlink:href="#m2e9c534864" y="76.032"/>
      </g>
     </g>
     <g id="text_17">
      <!-- 450 -->
      <g transform="translate(73.545 82.032)scale(0.16 -0.16)">
       <use xlink:href="#Roboto-Regular-34"/>
       <use x="56.152344" xlink:href="#Roboto-Regular-35"/>
       <use x="112.304688" xlink:href="#Roboto-Regular-30"/>
      </g>
     </g>
    </g>
    <g id="text_18">
     <!-- Pressure (kPa) -->
     <defs>
      <path d="M 17.625 27.828125 
L 17.625 0 
L 8.25 0 
L 8.25 71.09375 
L 34.46875 71.09375 
Q 46.140625 71.09375 52.75 65.140625 
Q 59.375 59.1875 59.375 49.359375 
Q 59.375 39.015625 52.90625 33.421875 
Q 46.4375 27.828125 34.375 27.828125 
z
M 17.625 35.5 
L 34.46875 35.5 
Q 42 35.5 46 39.03125 
Q 50 42.578125 50 49.265625 
Q 50 55.609375 46 59.421875 
Q 42 63.234375 35.015625 63.375 
L 17.625 63.375 
z
" id="Roboto-Regular-50"/>
      <path d="M 32.375 44.734375 
Q 30.328125 45.0625 27.9375 45.0625 
Q 19.046875 45.0625 15.875 37.5 
L 15.875 0 
L 6.84375 0 
L 6.84375 52.828125 
L 15.625 52.828125 
L 15.765625 46.734375 
Q 20.21875 53.8125 28.375 53.8125 
Q 31 53.8125 32.375 53.125 
z
" id="Roboto-Regular-72"/>
      <path d="M 39.453125 5.21875 
Q 34.1875 -0.984375 23.96875 -0.984375 
Q 15.53125 -0.984375 11.109375 3.921875 
Q 6.6875 8.84375 6.640625 18.453125 
L 6.640625 52.828125 
L 15.671875 52.828125 
L 15.671875 18.703125 
Q 15.671875 6.6875 25.4375 6.6875 
Q 35.796875 6.6875 39.203125 14.40625 
L 39.203125 52.828125 
L 48.25 52.828125 
L 48.25 0 
L 39.65625 0 
z
" id="Roboto-Regular-75"/>
      <path d="M 21.578125 24.46875 
L 15.921875 18.5625 
L 15.921875 0 
L 6.890625 0 
L 6.890625 75 
L 15.921875 75 
L 15.921875 29.640625 
L 20.75 35.453125 
L 37.203125 52.828125 
L 48.1875 52.828125 
L 27.640625 30.765625 
L 50.59375 0 
L 39.984375 0 
z
" id="Roboto-Regular-6b"/>
      <path d="M 39.453125 0 
Q 38.671875 1.5625 38.1875 5.5625 
Q 31.890625 -0.984375 23.140625 -0.984375 
Q 15.328125 -0.984375 10.328125 3.4375 
Q 5.328125 7.859375 5.328125 14.65625 
Q 5.328125 22.90625 11.59375 27.46875 
Q 17.875 32.03125 29.25 32.03125 
L 38.03125 32.03125 
L 38.03125 36.1875 
Q 38.03125 40.921875 35.203125 43.71875 
Q 32.375 46.53125 26.859375 46.53125 
Q 22.015625 46.53125 18.75 44.09375 
Q 15.484375 41.65625 15.484375 38.1875 
L 6.390625 38.1875 
Q 6.390625 42.140625 9.203125 45.828125 
Q 12.015625 49.515625 16.8125 51.65625 
Q 21.625 53.8125 27.390625 53.8125 
Q 36.53125 53.8125 41.703125 49.234375 
Q 46.875 44.671875 47.078125 36.671875 
L 47.078125 12.359375 
Q 47.078125 5.078125 48.921875 0.78125 
L 48.921875 0 
z
M 24.46875 6.890625 
Q 28.71875 6.890625 32.515625 9.078125 
Q 36.328125 11.28125 38.03125 14.796875 
L 38.03125 25.640625 
L 30.953125 25.640625 
Q 14.359375 25.640625 14.359375 15.921875 
Q 14.359375 11.671875 17.1875 9.28125 
Q 20.015625 6.890625 24.46875 6.890625 
z
" id="Roboto-Regular-61"/>
     </defs>
     <g transform="translate(65.50525 377.773)rotate(-90)scale(0.176 -0.176)">
      <use xlink:href="#Roboto-Regular-50"/>
      <use x="63.085938" xlink:href="#Roboto-Regular-72"/>
      <use x="96.923828" xlink:href="#Roboto-Regular-65"/>
      <use x="149.902344" xlink:href="#Roboto-Regular-73"/>
      <use x="201.464844" xlink:href="#Roboto-Regular-73"/>
      <use x="253.027344" xlink:href="#Roboto-Regular-75"/>
      <use x="308.154297" xlink:href="#Roboto-Regular-72"/>
      <use x="341.992188" xlink:href="#Roboto-Regular-65"/>
      <use x="394.970703" xlink:href="#Roboto-Regular-20"/>
      <use x="419.726562" xlink:href="#Roboto-Regular-28"/>
      <use x="453.90625" xlink:href="#Roboto-Regular-6b"/>
      <use x="504.589844" xlink:href="#Roboto-Regular-50"/>
      <use x="567.675781" xlink:href="#Roboto-Regular-61"/>
      <use x="622.070312" xlink:href="#Roboto-Regular-29"/>
     </g>
    </g>
   </g>
   <g id="line2d_33">
    <path clip-path="url(#pd4d2102336)" d="M 31.062528 563.904 
L 114.628608 563.904 
L 115.2 395.86199 
L 117.199872 395.86199 
L 117.914112 384.4526 
L 120.19968 384.4526 
L 120.771072 407.130524 
L 123.05664 407.130524 
L 123.77088 423.188185 
L 125.9136 423.188185 
L 127.34208 427.695598 
L 128.913408 429.597163 
L 129.341952 431.076158 
L 130.91328 431.076158 
L 132.198912 427.695598 
L 134.48448 424.103753 
L 136.055808 423.329041 
L 137.34144 422.413473 
L 138.05568 422.061331 
L 140.1984 422.061331 
L 140.91264 422.343045 
L 142.198272 422.343045 
L 143.626752 421.497905 
L 145.19808 421.70919 
L 147.3408 422.13176 
L 147.769344 424.526323 
L 150.340608 424.526323 
L 150.769152 425.301035 
L 152.34048 425.301035 
L 154.4832 427.061743 
L 154.911744 427.695598 
L 157.911552 427.62517 
L 160.054272 427.554742 
L 161.482752 429.73802 
L 163.05408 428.89288 
L 163.625472 427.977312 
L 165.053952 427.977312 
L 167.910912 428.399882 
L 170.19648 428.399882 
L 170.767872 429.526735 
L 172.196352 429.526735 
L 173.481984 427.695598 
L 175.053312 425.723605 
L 176.338944 424.878465 
L 178.624512 438.541562 
L 179.338752 475.305153 
L 180.624384 475.305153 
L 182.195712 470.37517 
L 183.481344 463.050623 
L 185.766912 464.600046 
L 186.481152 468.121463 
L 187.766784 468.121463 
L 189.338112 471.22031 
L 191.62368 479.108284 
L 192.909312 482.136702 
L 193.623552 483.193127 
L 195.766272 483.193127 
L 197.194752 483.826982 
L 197.766144 485.658119 
L 200.051712 485.658119 
L 201.337344 487.841397 
L 202.051584 491.151529 
L 204.337152 491.151529 
L 205.622784 487.066685 
L 206.337024 486.01026 
L 208.479744 486.01026 
L 209.908224 484.249552 
L 210.622464 483.967839 
L 212.050944 483.967839 
L 214.193664 484.249552 
L 214.765056 486.291974 
L 216.336384 486.291974 
L 217.764864 485.58769 
L 219.907584 486.291974 
L 220.621824 484.953835 
L 222.764544 484.953835 
L 224.193024 483.333984 
L 224.907264 482.20713 
L 226.192896 482.20713 
L 227.764224 482.488844 
L 229.049856 485.305977 
L 230.621184 487.348399 
L 233.335296 488.334396 
L 234.906624 488.334396 
L 236.192256 487.911825 
L 238.477824 488.334396 
L 239.192064 489.179536 
L 240.477696 489.179536 
L 242.763264 488.616109 
L 243.334656 487.489255 
L 244.763136 487.489255 
L 247.191552 444.880112 
L 247.620096 401.073687 
L 249.905664 401.073687 
L 250.477056 397.340985 
L 252.762624 397.340985 
L 253.476864 417.413061 
L 254.762496 417.413061 
L 257.048064 417.201776 
L 258.333696 417.48349 
L 259.047936 418.539915 
L 260.619264 418.539915 
L 262.619136 421.70919 
L 263.190528 427.061743 
L 264.761856 427.061743 
L 266.190336 431.780442 
L 267.761664 433.259437 
L 269.047296 435.583572 
L 270.332928 435.865285 
L 271.904256 437.132995 
L 273.332736 438.118992 
L 276.903936 440.090985 
L 277.475328 440.795269 
L 279.046656 440.795269 
L 281.760768 442.696834 
L 284.046336 443.048975 
L 285.617664 442.344692 
L 286.189056 441.640409 
L 287.617536 441.640409 
L 289.760256 441.99255 
L 290.474496 443.612402 
L 293.188608 443.682831 
L 295.331328 442.908119 
L 296.045568 439.245845 
L 297.616896 439.245845 
L 298.902528 439.104989 
L 301.188096 437.837279 
L 302.473728 433.400293 
L 304.045056 434.949717 
L 304.759296 437.414709 
L 306.044928 437.414709 
L 307.473408 435.020145 
L 309.044736 435.23143 
L 310.330368 436.07657 
L 311.616 435.372287 
L 313.901568 435.794857 
L 315.472896 444.880112 
L 316.758528 441.499552 
L 317.472768 440.231842 
L 319.758336 440.231842 
L 321.043968 469.248316 
L 321.758208 462.76891 
L 323.900928 462.76891 
L 324.615168 456.219074 
L 326.900736 456.219074 
L 327.472128 518.477723 
L 328.900608 518.477723 
L 330.18624 520.520145 
L 331.757568 515.026735 
L 334.043136 508.829041 
L 335.328768 491.855812 
L 337.32864 483.967839 
L 338.899968 483.967839 
L 340.1856 485.728547 
L 341.61408 486.503259 
L 343.7568 485.798975 
L 344.47104 484.249552 
L 346.042368 484.249552 
L 348.04224 484.108695 
L 348.75648 483.333984 
L 350.327808 483.333984 
L 351.61344 483.686125 
L 353.899008 483.193127 
L 354.4704 485.798975 
L 355.89888 485.798975 
L 357.470208 487.066685 
L 358.75584 487.137114 
L 360.041472 486.01026 
L 362.32704 486.925829 
L 363.04128 489.038679 
L 366.755328 489.038679 
L 367.183872 488.334396 
L 369.46944 488.334396 
L 371.040768 488.827394 
L 371.755008 488.756966 
L 373.897728 488.756966 
L 375.326208 489.320392 
L 377.32608 492.982666 
L 379.4688 492.982666 
L 381.040128 493.334807 
L 381.468672 492.278382 
L 383.04 492.278382 
L 384.46848 491.081101 
L 385.754112 489.179536 
L 387.32544 474.460013 
L 388.611072 418.258201 
L 390.89664 393.889997 
L 392.182272 375.226488 
L 392.896512 356.140409 
L 395.18208 356.140409 
L 396.467712 345.50573 
L 397.181952 343.533737 
L 399.324672 343.533737 
L 400.896 338.462897 
L 402.32448 338.74461 
L 402.895872 343.040738 
L 405.18144 343.040738 
L 406.467072 347.336867 
L 408.0384 349.73143 
L 408.609792 355.083984 
L 410.752512 355.083984 
L 412.32384 366.000376 
L 413.03808 369.873934 
L 415.1808 369.873934 
L 417.180672 380.156471 
L 418.609152 380.156471 
L 420.18048 381.987608 
L 421.466112 383.677888 
L 422.894592 379.593045 
L 424.323072 377.621051 
L 425.751552 380.156471 
L 427.037184 382.198893 
L 429.4656 386.354165 
L 430.036992 398.538267 
L 431.465472 398.538267 
L 434.179584 404.383819 
L 435.750912 404.383819 
L 438.465024 407.623523 
L 440.036352 405.510672 
L 442.179072 401.637114 
L 442.893312 378.395763 
L 444.893184 378.395763 
L 446.464512 377.902765 
L 447.178752 378.466191 
L 449.321472 378.466191 
L 450.035712 370.226076 
L 451.464192 370.226076 
L 452.749824 370.930359 
L 454.321152 368.676653 
L 455.606784 362.971958 
L 457.892352 361.140821 
L 458.606592 359.802682 
L 459.892224 359.802682 
L 461.463552 360.013967 
L 462.749184 363.394528 
L 464.177664 365.718663 
L 465.748992 367.197658 
L 467.891712 370.859931 
L 469.320192 380.438185 
L 469.891584 388.889585 
L 472.177152 388.889585 
L 473.462784 446.006966 
L 475.034112 460.163061 
L 475.462656 466.079041 
L 477.033984 466.079041 
L 479.033856 463.261908 
L 480.033792 457.205071 
L 482.033664 457.205071 
L 482.605056 461.642056 
L 484.176384 461.642056 
L 485.604864 456.993786 
L 487.176192 454.317509 
L 489.176064 442.062979 
L 489.747456 430.442303 
L 491.318784 430.442303 
L 493.604352 428.963308 
L 494.032896 426.850458 
L 496.318464 426.850458 
L 497.889792 426.709602 
L 498.461184 425.51232 
L 499.889664 425.51232 
L 501.175296 424.737608 
L 502.746624 425.371463 
L 505.032192 423.751611 
L 505.603584 426.639173 
L 507.032064 426.639173 
L 508.317696 427.343457 
L 509.889024 430.090162 
L 512.174592 431.4283 
L 512.603136 435.935714 
L 514.745856 435.935714 
L 515.460096 440.443127 
L 517.745664 440.443127 
L 518.317056 437.625994 
L 519.745536 437.625994 
L 521.316864 437.203424 
L 522.602496 436.569569 
L 524.888064 436.006142 
L 525.459456 435.442715 
L 527.745024 435.442715 
L 529.030656 445.443539 
L 529.744896 444.598399 
L 532.030464 444.598399 
L 533.316096 443.260261 
L 534.030336 446.006966 
L 535.601664 446.006966 
L 537.601536 456.782501 
L 539.172864 456.500788 
L 539.744256 458.754494 
L 542.029824 458.754494 
L 543.315456 475.093868 
L 544.029696 476.643292 
L 546.315264 476.643292 
L 547.600896 477.98143 
L 548.315136 485.376405 
L 550.457856 485.376405 
L 551.886336 491.714956 
L 552.457728 491.221957 
L 554.029056 491.221957 
L 556.314624 487.207542 
L 556.743168 485.024264 
L 559.028736 485.024264 
L 560.600064 483.826982 
L 561.028608 485.446834 
L 562.599936 485.446834 
L 564.742656 488.123111 
L 565.456896 487.630112 
L 567.742464 487.630112 
L 568.171008 487.770969 
L 569.742336 487.770969 
L 571.742208 485.446834 
L 572.3136 487.137114 
L 574.599168 487.137114 
L 575.313408 486.503259 
L 576.884736 486.503259 
L 578.884608 486.996257 
L 579.456 486.503259 
L 581.027328 486.503259 
L 583.312896 485.094692 
L 584.027136 484.179124 
L 585.312768 484.179124 
L 588.883968 484.74255 
L 589.598208 485.305977 
L 591.169536 485.305977 
L 593.169408 484.883407 
L 593.7408 485.16512 
L 595.312128 485.16512 
L 596.740608 485.728547 
L 598.02624 486.925829 
L 600.311808 487.489255 
L 600.8832 487.841397 
L 603.168768 487.841397 
L 603.883008 486.080689 
L 605.16864 486.080689 
L 607.454208 485.305977 
L 608.0256 485.446834 
L 609.45408 485.446834 
L 611.025408 486.01026 
L 612.31104 487.137114 
L 613.882368 486.8554 
L 615.168 487.27797 
L 617.453568 487.418827 
L 618.7392 486.925829 
L 620.16768 485.094692 
L 621.024768 484.672122 
L 623.02464 484.672122 
L 623.73888 483.967839 
L 627.31008 483.89741 
L 627.881472 484.460837 
L 629.4528 484.460837 
L 630.88128 484.953835 
L 632.452608 485.16512 
L 633.73824 484.460837 
L 635.023872 473.192303 
L 636.5952 450.796092 
L 638.02368 451.500376 
L 640.1664 454.951364 
L 642.166272 464.45919 
L 644.45184 464.45919 
L 645.16608 465.938185 
L 647.3088 465.938185 
L 648.02304 466.431183 
L 650.88 466.501611 
L 653.165568 465.374758 
L 654.4512 460.374346 
L 655.87968 460.303918 
L 656.451072 460.092633 
L 657.879552 460.092633 
L 660.307968 456.641644 
L 660.736512 456.500788 
L 662.30784 456.500788 
L 664.307712 458.684066 
L 665.021952 461.289915 
L 666.59328 461.289915 
L 669.45024 466.14947 
L 670.735872 466.14947 
L 672.164352 467.205895 
L 674.307072 467.83975 
L 675.735552 467.83975 
L 677.30688 463.121051 
L 677.878272 448.612814 
L 679.306752 448.612814 
L 680.87808 448.753671 
L 682.877952 450.936949 
L 683.592192 447.767674 
L 685.020672 447.767674 
L 687.30624 445.161826 
L 687.734784 439.597987 
L 690.020352 439.597987 
L 690.734592 432.132583 
L 692.163072 432.132583 
L 693.591552 430.935302 
L 694.877184 431.498728 
L 697.162752 431.076158 
L 697.876992 429.597163 
L 699.305472 429.597163 
L 700.733952 428.752023 
L 702.876672 429.808448 
L 704.305152 432.414297 
L 705.019392 432.836867 
L 706.305024 432.836867 
L 708.73344 435.090574 
L 709.161984 431.85087 
L 711.447552 431.85087 
L 712.733184 434.668004 
L 713.447424 434.38629 
L 715.732992 434.38629 
L 717.161472 428.329453 
L 717.875712 432.343868 
L 719.304192 432.343868 
L 720.589824 432.062155 
L 722.161152 430.864873 
L 724.303872 426.146175 
L 725.732352 424.24461 
L 727.017984 420.511908 
L 727.732224 417.694775 
L 730.017792 417.694775 
L 731.446272 423.610755 
L 732.017664 424.455895 
L 733.588992 424.455895 
L 735.731712 426.850458 
L 736.445952 428.681595 
L 737.731584 428.681595 
L 739.160064 429.949305 
L 741.302784 432.27344 
L 742.874112 433.11858 
L 744.302592 433.611578 
L 744.873984 436.006142 
L 746.302464 436.006142 
L 747.873792 444.316686 
L 750.016512 444.387114 
L 750.445056 444.034972 
L 752.873472 444.034972 
L 754.016256 449.246669 
L 754.730496 456.923358 
L 757.016064 456.923358 
L 757.587456 449.598811 
L 759.158784 449.598811 
L 760.587264 448.542386 
L 761.872896 446.992962 
L 763.444224 446.006966 
L 765.729792 445.936537 
L 766.301184 446.640821 
L 768.301056 446.640821 
L 769.872384 445.302682 
L 770.586624 445.866109 
L 771.872256 445.866109 
L 774.157824 447.485961 
L 774.872064 448.894527 
L 777.014784 448.894527 
L 778.443264 401.566686 
L 779.014656 402.552682 
L 781.300224 402.552682 
L 782.585856 400.228547 
L 783.300096 390.016439 
L 784.871424 390.016439 
L 787.156992 367.268086 
L 788.442624 368.042798 
L 789.156864 359.520969 
L 790.442496 359.520969 
L 791.728128 355.506554 
L 794.299392 353.464132 
L 794.727936 349.449717 
L 796.870656 349.449717 
L 798.441984 350.99914 
L 798.870528 356.281266 
L 801.156096 356.281266 
L 801.870336 365.789091 
L 803.155968 365.789091 
L 804.727296 370.719074 
L 807.012864 373.395351 
L 807.584256 380.015615 
L 809.012736 380.015615 
L 811.155456 380.579041 
L 811.869696 383.18489 
L 813.155328 383.18489 
L 816.155136 391.565862 
L 817.440768 397.411414 
L 819.726336 420.511908 
L 820.297728 477.770145 
L 821.726208 477.770145 
L 823.297536 481.643704 
L 824.583168 479.108284 
L 826.868736 478.404 
L 828.440064 486.221545 
L 828.868608 490.165532 
L 830.439936 490.165532 
L 832.582656 496.222369 
L 833.0112 498.405648 
L 834.582528 498.405648 
L 836.011008 490.869816 
L 837.582336 488.897822 
L 839.725056 489.531677 
L 840.1536 492.560096 
L 842.439168 492.560096 
L 844.010496 510.237608 
L 844.724736 509.251611 
L 846.724608 509.251611 
L 848.295936 510.308036 
L 848.867328 511.646175 
L 850.8672 511.646175 
L 852.438528 527.985549 
L 853.867008 563.904 
L 921.434112 563.904 
L 921.434112 563.904 
" style="fill:none;stroke:#0000ff;stroke-linecap:square;stroke-width:2.8;"/>
   </g>
   <g id="patch_3">
    <path d="M 115.2 563.904 
L 115.2 76.032 
" style="fill:none;stroke:#000000;stroke-linecap:square;stroke-linejoin:miter;stroke-width:0.8;"/>
   </g>
   <g id="patch_4">
    <path d="M 829.44 563.904 
L 829.44 76.032 
" style="fill:none;stroke:#000000;stroke-linecap:square;stroke-linejoin:miter;stroke-width:0.8;"/>
   </g>
   <g id="patch_5">
    <path d="M 115.2 563.904 
L 829.44 563.904 
" style="fill:none;stroke:#000000;stroke-linecap:square;stroke-linejoin:miter;stroke-width:0.8;"/>
   </g>
   <g id="patch_6">
    <path d="M 115.2 76.032 
L 829.44 76.032 
" style="fill:none;stroke:#000000;stroke-linecap:square;stroke-linejoin:miter;stroke-width:0.8;"/>
   </g>
   <g id="legend_1">
    <g id="patch_7">
     <path d="M 646.2225 135.332 
L 818.24 135.332 
Q 821.44 135.332 821.44 132.132 
L 821.44 87.232 
Q 821.44 84.032 818.24 84.032 
L 646.2225 84.032 
Q 643.0225 84.032 643.0225 87.232 
L 643.0225 132.132 
Q 643.0225 135.332 646.2225 135.332 
z
" style="fill:#ffffff;opacity:0.8;stroke:#cccccc;stroke-linejoin:miter;stroke-width:0.48;"/>
    </g>
    <g id="line2d_34">
     <path d="M 649.4225 96.832 
L 681.4225 96.832 
" style="fill:none;stroke:#0000ff;stroke-linecap:square;stroke-width:2.8;"/>
    </g>
    <g id="line2d_35"/>
    <g id="text_19">
     <!-- Applied Pressure -->
     <defs>
      <path d="M 47.515625 18.5625 
L 17.71875 18.5625 
L 11.03125 0 
L 1.375 0 
L 28.515625 71.09375 
L 36.71875 71.09375 
L 63.921875 0 
L 54.296875 0 
z
M 20.5625 26.265625 
L 44.734375 26.265625 
L 32.625 59.515625 
z
" id="Roboto-Regular-41"/>
      <path d="M 51.46875 25.828125 
Q 51.46875 13.765625 45.953125 6.390625 
Q 40.4375 -0.984375 31 -0.984375 
Q 21.390625 -0.984375 15.875 5.125 
L 15.875 -20.3125 
L 6.84375 -20.3125 
L 6.84375 52.828125 
L 15.09375 52.828125 
L 15.53125 46.96875 
Q 21.046875 53.8125 30.859375 53.8125 
Q 40.375 53.8125 45.921875 46.625 
Q 51.46875 39.453125 51.46875 26.65625 
z
M 42.4375 26.859375 
Q 42.4375 35.796875 38.625 40.96875 
Q 34.8125 46.140625 28.171875 46.140625 
Q 19.96875 46.140625 15.875 38.875 
L 15.875 13.625 
Q 19.921875 6.390625 28.265625 6.390625 
Q 34.765625 6.390625 38.59375 11.546875 
Q 42.4375 16.703125 42.4375 26.859375 
z
" id="Roboto-Regular-70"/>
      <path d="M 16.65625 0 
L 7.625 0 
L 7.625 75 
L 16.65625 75 
z
" id="Roboto-Regular-6c"/>
      <path d="M 4.640625 26.859375 
Q 4.640625 39.015625 10.390625 46.40625 
Q 16.15625 53.8125 25.484375 53.8125 
Q 34.765625 53.8125 40.1875 47.46875 
L 40.1875 75 
L 49.21875 75 
L 49.21875 0 
L 40.921875 0 
L 40.484375 5.671875 
Q 35.0625 -0.984375 25.390625 -0.984375 
Q 16.21875 -0.984375 10.421875 6.53125 
Q 4.640625 14.0625 4.640625 26.171875 
z
M 13.671875 25.828125 
Q 13.671875 16.84375 17.375 11.765625 
Q 21.09375 6.6875 27.640625 6.6875 
Q 36.234375 6.6875 40.1875 14.40625 
L 40.1875 38.671875 
Q 36.140625 46.140625 27.734375 46.140625 
Q 21.09375 46.140625 17.375 41.015625 
Q 13.671875 35.890625 13.671875 25.828125 
z
" id="Roboto-Regular-64"/>
     </defs>
     <g transform="translate(694.2225 102.432)scale(0.16 -0.16)">
      <use xlink:href="#Roboto-Regular-41"/>
      <use x="65.234375" xlink:href="#Roboto-Regular-70"/>
      <use x="121.337891" xlink:href="#Roboto-Regular-70"/>
      <use x="177.441406" xlink:href="#Roboto-Regular-6c"/>
      <use x="201.708984" xlink:href="#Roboto-Regular-69"/>
      <use x="225.976562" xlink:href="#Roboto-Regular-65"/>
      <use x="278.955078" xlink:href="#Roboto-Regular-64"/>
      <use x="335.351562" xlink:href="#Roboto-Regular-20"/>
      <use x="360.107422" xlink:href="#Roboto-Regular-50"/>
      <use x="423.193359" xlink:href="#Roboto-Regular-72"/>
      <use x="457.03125" xlink:href="#Roboto-Regular-65"/>
      <use x="510.009766" xlink:href="#Roboto-Regular-73"/>
      <use x="561.572266" xlink:href="#Roboto-Regular-73"/>
      <use x="613.134766" xlink:href="#Roboto-Regular-75"/>
      <use x="668.261719" xlink:href="#Roboto-Regular-72"/>
      <use x="702.099609" xlink:href="#Roboto-Regular-65"/>
     </g>
    </g>
    <g id="line2d_36">
     <path d="M 649.4225 120.082 
L 681.4225 120.082 
" style="fill:none;stroke:#ff0000;stroke-linecap:square;stroke-width:2.8;"/>
    </g>
    <g id="line2d_37"/>
    <g id="text_20">
     <!-- Sensor Output -->
     <defs>
      <path d="M 29.203125 31.6875 
Q 17.140625 35.15625 11.640625 40.203125 
Q 6.15625 45.265625 6.15625 52.6875 
Q 6.15625 61.078125 12.859375 66.578125 
Q 19.578125 72.078125 30.328125 72.078125 
Q 37.640625 72.078125 43.375 69.234375 
Q 49.125 66.40625 52.265625 61.421875 
Q 55.421875 56.453125 55.421875 50.53125 
L 46 50.53125 
Q 46 56.984375 41.890625 60.671875 
Q 37.796875 64.359375 30.328125 64.359375 
Q 23.390625 64.359375 19.5 61.296875 
Q 15.625 58.25 15.625 52.828125 
Q 15.625 48.484375 19.3125 45.484375 
Q 23 42.484375 31.859375 39.984375 
Q 40.71875 37.5 45.71875 34.5 
Q 50.734375 31.5 53.140625 27.484375 
Q 55.5625 23.484375 55.5625 18.0625 
Q 55.5625 9.421875 48.828125 4.21875 
Q 42.09375 -0.984375 30.8125 -0.984375 
Q 23.484375 -0.984375 17.140625 1.828125 
Q 10.796875 4.640625 7.34375 9.515625 
Q 3.90625 14.40625 3.90625 20.609375 
L 13.328125 20.609375 
Q 13.328125 14.15625 18.09375 10.421875 
Q 22.859375 6.6875 30.8125 6.6875 
Q 38.234375 6.6875 42.1875 9.71875 
Q 46.140625 12.75 46.140625 17.96875 
Q 46.140625 23.1875 42.46875 26.046875 
Q 38.8125 28.90625 29.203125 31.6875 
z
" id="Roboto-Regular-53"/>
      <path d="M 15.375 52.828125 
L 15.671875 46.1875 
Q 21.734375 53.8125 31.5 53.8125 
Q 48.25 53.8125 48.390625 34.90625 
L 48.390625 0 
L 39.359375 0 
L 39.359375 34.96875 
Q 39.3125 40.671875 36.75 43.40625 
Q 34.1875 46.140625 28.765625 46.140625 
Q 24.359375 46.140625 21.03125 43.796875 
Q 17.71875 41.453125 15.875 37.640625 
L 15.875 0 
L 6.84375 0 
L 6.84375 52.828125 
z
" id="Roboto-Regular-6e"/>
      <path d="M 4.4375 26.90625 
Q 4.4375 34.671875 7.484375 40.875 
Q 10.546875 47.078125 15.984375 50.4375 
Q 21.4375 53.8125 28.421875 53.8125 
Q 39.203125 53.8125 45.875 46.34375 
Q 52.546875 38.875 52.546875 26.46875 
L 52.546875 25.828125 
Q 52.546875 18.109375 49.578125 11.984375 
Q 46.625 5.859375 41.125 2.4375 
Q 35.640625 -0.984375 28.515625 -0.984375 
Q 17.78125 -0.984375 11.109375 6.484375 
Q 4.4375 13.96875 4.4375 26.265625 
z
M 13.53125 25.828125 
Q 13.53125 17.046875 17.609375 11.71875 
Q 21.6875 6.390625 28.515625 6.390625 
Q 35.40625 6.390625 39.453125 11.78125 
Q 43.5 17.1875 43.5 26.90625 
Q 43.5 35.59375 39.375 40.984375 
Q 35.25 46.390625 28.421875 46.390625 
Q 21.734375 46.390625 17.625 41.0625 
Q 13.53125 35.75 13.53125 25.828125 
z
" id="Roboto-Regular-6f"/>
      <path d="M 62.9375 33.25 
Q 62.9375 22.796875 59.421875 15.015625 
Q 55.90625 7.234375 49.453125 3.125 
Q 43.015625 -0.984375 34.421875 -0.984375 
Q 26.03125 -0.984375 19.53125 3.140625 
Q 13.03125 7.28125 9.4375 14.921875 
Q 5.859375 22.5625 5.765625 32.625 
L 5.765625 37.75 
Q 5.765625 48 9.328125 55.859375 
Q 12.890625 63.71875 19.40625 67.890625 
Q 25.921875 72.078125 34.328125 72.078125 
Q 42.875 72.078125 49.390625 67.9375 
Q 55.90625 63.8125 59.421875 55.96875 
Q 62.9375 48.140625 62.9375 37.75 
z
M 53.609375 37.84375 
Q 53.609375 50.484375 48.53125 57.25 
Q 43.453125 64.015625 34.328125 64.015625 
Q 25.4375 64.015625 20.328125 57.25 
Q 15.234375 50.484375 15.09375 38.484375 
L 15.09375 33.25 
Q 15.09375 21 20.234375 13.984375 
Q 25.390625 6.984375 34.421875 6.984375 
Q 43.5 6.984375 48.484375 13.59375 
Q 53.46875 20.21875 53.609375 32.5625 
z
" id="Roboto-Regular-4f"/>
      <path d="M 19.09375 65.625 
L 19.09375 52.828125 
L 28.953125 52.828125 
L 28.953125 45.84375 
L 19.09375 45.84375 
L 19.09375 13.09375 
Q 19.09375 9.90625 20.40625 8.3125 
Q 21.734375 6.734375 24.90625 6.734375 
Q 26.46875 6.734375 29.203125 7.328125 
L 29.203125 0 
Q 25.640625 -0.984375 22.265625 -0.984375 
Q 16.21875 -0.984375 13.140625 2.671875 
Q 10.0625 6.34375 10.0625 13.09375 
L 10.0625 45.84375 
L 0.4375 45.84375 
L 0.4375 52.828125 
L 10.0625 52.828125 
L 10.0625 65.625 
z
" id="Roboto-Regular-74"/>
     </defs>
     <g transform="translate(694.2225 125.682)scale(0.16 -0.16)">
      <use xlink:href="#Roboto-Regular-53"/>
      <use x="59.326172" xlink:href="#Roboto-Regular-65"/>
      <use x="112.304688" xlink:href="#Roboto-Regular-6e"/>
      <use x="167.480469" xlink:href="#Roboto-Regular-73"/>
      <use x="219.042969" xlink:href="#Roboto-Regular-6f"/>
      <use x="276.074219" xlink:href="#Roboto-Regular-72"/>
      <use x="309.912109" xlink:href="#Roboto-Regular-20"/>
      <use x="334.667969" xlink:href="#Roboto-Regular-4f"/>
      <use x="403.417969" xlink:href="#Roboto-Regular-75"/>
      <use x="458.544922" xlink:href="#Roboto-Regular-74"/>
      <use x="491.210938" xlink:href="#Roboto-Regular-70"/>
      <use x="547.314453" xlink:href="#Roboto-Regular-75"/>
      <use x="602.441406" xlink:href="#Roboto-Regular-74"/>
     </g>
    </g>
   </g>
  </g>
  <g id="axes_2">
   <g id="matplotlib.axis_3">
    <g id="ytick_11">
     <g id="line2d_38">
      <defs>
       <path d="M 0 0 
L 3.5 0 
" id="mef6d04a47f" style="stroke:#000000;stroke-width:1.6;"/>
      </defs>
      <g>
       <use style="stroke:#000000;stroke-width:1.6;" x="829.44" xlink:href="#mef6d04a47f" y="563.904"/>
      </g>
     </g>
     <g id="text_21">
      <!-- 0 -->
      <g transform="translate(844.14 569.904)scale(0.16 -0.16)">
       <use xlink:href="#Roboto-Regular-30"/>
      </g>
     </g>
    </g>
    <g id="ytick_12">
     <g id="line2d_39">
      <g>
       <use style="stroke:#000000;stroke-width:1.6;" x="829.44" xlink:href="#mef6d04a47f" y="502.92"/>
      </g>
     </g>
     <g id="text_22">
      <!-- 1 -->
      <g transform="translate(844.14 508.92)scale(0.16 -0.16)">
       <use xlink:href="#Roboto-Regular-31"/>
      </g>
     </g>
    </g>
    <g id="ytick_13">
     <g id="line2d_40">
      <g>
       <use style="stroke:#000000;stroke-width:1.6;" x="829.44" xlink:href="#mef6d04a47f" y="441.936"/>
      </g>
     </g>
     <g id="text_23">
      <!-- 2 -->
      <g transform="translate(844.14 447.936)scale(0.16 -0.16)">
       <use xlink:href="#Roboto-Regular-32"/>
      </g>
     </g>
    </g>
    <g id="ytick_14">
     <g id="line2d_41">
      <g>
       <use style="stroke:#000000;stroke-width:1.6;" x="829.44" xlink:href="#mef6d04a47f" y="380.952"/>
      </g>
     </g>
     <g id="text_24">
      <!-- 3 -->
      <g transform="translate(844.14 386.952)scale(0.16 -0.16)">
       <use xlink:href="#Roboto-Regular-33"/>
      </g>
     </g>
    </g>
    <g id="ytick_15">
     <g id="line2d_42">
      <g>
       <use style="stroke:#000000;stroke-width:1.6;" x="829.44" xlink:href="#mef6d04a47f" y="319.968"/>
      </g>
     </g>
     <g id="text_25">
      <!-- 4 -->
      <g transform="translate(844.14 325.968)scale(0.16 -0.16)">
       <use xlink:href="#Roboto-Regular-34"/>
      </g>
     </g>
    </g>
    <g id="ytick_16">
     <g id="line2d_43">
      <g>
       <use style="stroke:#000000;stroke-width:1.6;" x="829.44" xlink:href="#mef6d04a47f" y="258.984"/>
      </g>
     </g>
     <g id="text_26">
      <!-- 5 -->
      <g transform="translate(844.14 264.984)scale(0.16 -0.16)">
       <use xlink:href="#Roboto-Regular-35"/>
      </g>
     </g>
    </g>
    <g id="ytick_17">
     <g id="line2d_44">
      <g>
       <use style="stroke:#000000;stroke-width:1.6;" x="829.44" xlink:href="#mef6d04a47f" y="198"/>
      </g>
     </g>
     <g id="text_27">
      <!-- 6 -->
      <defs>
       <path d="M 41.359375 71.140625 
L 41.359375 63.484375 
L 39.703125 63.484375 
Q 29.15625 63.28125 22.90625 57.21875 
Q 16.65625 51.171875 15.671875 40.1875 
Q 21.296875 46.625 31 46.625 
Q 40.28125 46.625 45.828125 40.078125 
Q 51.375 33.546875 51.375 23.1875 
Q 51.375 12.203125 45.390625 5.609375 
Q 39.40625 -0.984375 29.34375 -0.984375 
Q 19.140625 -0.984375 12.796875 6.859375 
Q 6.453125 14.703125 6.453125 27.046875 
L 6.453125 30.515625 
Q 6.453125 50.140625 14.8125 60.515625 
Q 23.1875 70.90625 39.75 71.140625 
z
M 29.5 39.109375 
Q 24.859375 39.109375 20.953125 36.328125 
Q 17.046875 33.546875 15.53125 29.34375 
L 15.53125 26.03125 
Q 15.53125 17.234375 19.484375 11.859375 
Q 23.4375 6.5 29.34375 6.5 
Q 35.453125 6.5 38.9375 10.984375 
Q 42.4375 15.484375 42.4375 22.75 
Q 42.4375 30.078125 38.890625 34.59375 
Q 35.359375 39.109375 29.5 39.109375 
z
" id="Roboto-Regular-36"/>
      </defs>
      <g transform="translate(844.14 204)scale(0.16 -0.16)">
       <use xlink:href="#Roboto-Regular-36"/>
      </g>
     </g>
    </g>
    <g id="ytick_18">
     <g id="line2d_45">
      <g>
       <use style="stroke:#000000;stroke-width:1.6;" x="829.44" xlink:href="#mef6d04a47f" y="137.016"/>
      </g>
     </g>
     <g id="text_28">
      <!-- 7 -->
      <defs>
       <path d="M 51.8125 66.015625 
L 22.359375 0 
L 12.890625 0 
L 42.234375 63.671875 
L 3.765625 63.671875 
L 3.765625 71.09375 
L 51.8125 71.09375 
z
" id="Roboto-Regular-37"/>
      </defs>
      <g transform="translate(844.14 143.016)scale(0.16 -0.16)">
       <use xlink:href="#Roboto-Regular-37"/>
      </g>
     </g>
    </g>
    <g id="ytick_19">
     <g id="line2d_46">
      <g>
       <use style="stroke:#000000;stroke-width:1.6;" x="829.44" xlink:href="#mef6d04a47f" y="76.032"/>
      </g>
     </g>
     <g id="text_29">
      <!-- 8 -->
      <defs>
       <path d="M 49.03125 52.546875 
Q 49.03125 47.21875 46.21875 43.0625 
Q 43.40625 38.921875 38.625 36.578125 
Q 44.1875 34.1875 47.4375 29.59375 
Q 50.6875 25 50.6875 19.1875 
Q 50.6875 9.96875 44.453125 4.484375 
Q 38.234375 -0.984375 28.078125 -0.984375 
Q 17.828125 -0.984375 11.640625 4.515625 
Q 5.46875 10.015625 5.46875 19.1875 
Q 5.46875 24.953125 8.609375 29.59375 
Q 11.765625 34.234375 17.328125 36.625 
Q 12.59375 38.96875 9.859375 43.109375 
Q 7.125 47.265625 7.125 52.546875 
Q 7.125 61.53125 12.890625 66.796875 
Q 18.65625 72.078125 28.078125 72.078125 
Q 37.453125 72.078125 43.234375 66.796875 
Q 49.03125 61.53125 49.03125 52.546875 
z
M 41.65625 19.390625 
Q 41.65625 25.34375 37.859375 29.09375 
Q 34.078125 32.859375 27.96875 32.859375 
Q 21.875 32.859375 18.1875 29.140625 
Q 14.5 25.4375 14.5 19.375 
Q 14.5 13.328125 18.09375 9.859375 
Q 21.6875 6.390625 28.078125 6.390625 
Q 34.421875 6.390625 38.03125 9.875 
Q 41.65625 13.375 41.65625 19.390625 
z
M 28.078125 64.65625 
Q 22.75 64.65625 19.453125 61.359375 
Q 16.15625 58.0625 16.15625 52.390625 
Q 16.15625 46.96875 19.40625 43.625 
Q 22.65625 40.28125 28.078125 40.28125 
Q 33.5 40.28125 36.734375 43.625 
Q 39.984375 46.96875 39.984375 52.390625 
Q 39.984375 57.8125 36.609375 61.234375 
Q 33.25 64.65625 28.078125 64.65625 
z
" id="Roboto-Regular-38"/>
      </defs>
      <g transform="translate(844.14 82.032)scale(0.16 -0.16)">
       <use xlink:href="#Roboto-Regular-38"/>
      </g>
     </g>
    </g>
    <g id="text_30">
     <!-- Resistance (ohms) -->
     <defs>
      <path d="M 34.328125 28.765625 
L 17.625 28.765625 
L 17.625 0 
L 8.203125 0 
L 8.203125 71.09375 
L 31.734375 71.09375 
Q 43.75 71.09375 50.21875 65.625 
Q 56.6875 60.15625 56.6875 49.703125 
Q 56.6875 43.0625 53.09375 38.125 
Q 49.515625 33.203125 43.109375 30.765625 
L 59.8125 0.59375 
L 59.8125 0 
L 49.75 0 
z
M 17.625 36.421875 
L 32.03125 36.421875 
Q 39.015625 36.421875 43.140625 40.03125 
Q 47.265625 43.65625 47.265625 49.703125 
Q 47.265625 56.296875 43.328125 59.8125 
Q 39.40625 63.328125 31.984375 63.375 
L 17.625 63.375 
z
" id="Roboto-Regular-52"/>
      <path d="M 28.03125 6.390625 
Q 32.859375 6.390625 36.46875 9.3125 
Q 40.09375 12.25 40.484375 16.65625 
L 49.03125 16.65625 
Q 48.78125 12.109375 45.890625 8 
Q 43.015625 3.90625 38.203125 1.453125 
Q 33.40625 -0.984375 28.03125 -0.984375 
Q 17.234375 -0.984375 10.859375 6.21875 
Q 4.5 13.421875 4.5 25.921875 
L 4.5 27.4375 
Q 4.5 35.15625 7.328125 41.15625 
Q 10.15625 47.171875 15.453125 50.484375 
Q 20.75 53.8125 27.984375 53.8125 
Q 36.859375 53.8125 42.75 48.484375 
Q 48.640625 43.171875 49.03125 34.671875 
L 40.484375 34.671875 
Q 40.09375 39.796875 36.59375 43.09375 
Q 33.109375 46.390625 27.984375 46.390625 
Q 21.09375 46.390625 17.3125 41.421875 
Q 13.53125 36.46875 13.53125 27.09375 
L 13.53125 25.390625 
Q 13.53125 16.265625 17.28125 11.328125 
Q 21.046875 6.390625 28.03125 6.390625 
z
" id="Roboto-Regular-63"/>
      <path d="M 15.875 46.4375 
Q 21.875 53.8125 31.5 53.8125 
Q 48.25 53.8125 48.390625 34.90625 
L 48.390625 0 
L 39.359375 0 
L 39.359375 34.96875 
Q 39.3125 40.671875 36.75 43.40625 
Q 34.1875 46.140625 28.765625 46.140625 
Q 24.359375 46.140625 21.03125 43.796875 
Q 17.71875 41.453125 15.875 37.640625 
L 15.875 0 
L 6.84375 0 
L 6.84375 75 
L 15.875 75 
z
" id="Roboto-Regular-68"/>
     </defs>
     <g transform="translate(871.2435 393.40675)rotate(-90)scale(0.176 -0.176)">
      <use xlink:href="#Roboto-Regular-52"/>
      <use x="61.572266" xlink:href="#Roboto-Regular-65"/>
      <use x="114.550781" xlink:href="#Roboto-Regular-73"/>
      <use x="166.113281" xlink:href="#Roboto-Regular-69"/>
      <use x="190.380859" xlink:href="#Roboto-Regular-73"/>
      <use x="241.943359" xlink:href="#Roboto-Regular-74"/>
      <use x="274.609375" xlink:href="#Roboto-Regular-61"/>
      <use x="329.003906" xlink:href="#Roboto-Regular-6e"/>
      <use x="384.179688" xlink:href="#Roboto-Regular-63"/>
      <use x="436.523438" xlink:href="#Roboto-Regular-65"/>
      <use x="489.501953" xlink:href="#Roboto-Regular-20"/>
      <use x="514.257812" xlink:href="#Roboto-Regular-28"/>
      <use x="548.4375" xlink:href="#Roboto-Regular-6f"/>
      <use x="605.46875" xlink:href="#Roboto-Regular-68"/>
      <use x="660.546875" xlink:href="#Roboto-Regular-6d"/>
      <use x="748.193359" xlink:href="#Roboto-Regular-73"/>
      <use x="799.755859" xlink:href="#Roboto-Regular-29"/>
     </g>
    </g>
   </g>
   <g id="line2d_47">
    <path clip-path="url(#pd4d2102336)" d="M 53.203968 563.904 
L 317.172787 563.904 
L 113.757235 563.904 
L 115.2 551.09736 
L 116.642765 535.85136 
L 118.08553 523.04472 
L 119.528294 513.28728 
L 120.971059 507.79872 
L 122.413824 505.9692 
L 123.842304 504.74952 
L 125.299354 501.70032 
L 128.184883 496.8216 
L 129.627648 494.99208 
L 131.056128 491.94288 
L 132.513178 489.50352 
L 135.384422 485.84448 
L 136.841472 483.40512 
L 138.284237 483.40512 
L 141.169766 480.96576 
L 142.598246 477.30672 
L 144.055296 478.5264 
L 146.926541 476.08704 
L 148.38359 476.69688 
L 149.81207 475.4772 
L 151.254835 474.86736 
L 152.711885 473.03784 
L 154.140365 470.59848 
L 155.597414 469.98864 
L 157.040179 468.15912 
L 158.468659 466.93944 
L 159.925709 466.93944 
L 161.354189 465.10992 
L 162.796954 464.50008 
L 164.254003 462.06072 
L 165.682483 460.84104 
L 167.125248 460.2312 
L 168.568013 459.01152 
L 170.010778 458.40168 
L 171.467827 457.182 
L 174.339072 453.52296 
L 175.796122 454.1328 
L 177.224602 475.4772 
L 178.667366 506.57904 
L 180.110131 517.55616 
L 181.552896 511.45776 
L 182.995661 507.79872 
L 184.438426 512.0676 
L 185.88119 510.23808 
L 187.323955 509.0184 
L 188.76672 517.55616 
L 190.209485 528.53328 
L 191.65225 525.48408 
L 193.095014 533.412 
L 194.523494 532.80216 
L 195.980544 531.58248 
L 197.423309 534.63168 
L 198.851789 537.07104 
L 200.308838 537.68088 
L 201.751603 544.38912 
L 203.194368 540.73008 
L 204.637133 536.4612 
L 206.079898 536.4612 
L 208.965427 531.58248 
L 210.408192 533.412 
L 211.850957 534.02184 
L 213.293722 535.24152 
L 214.736486 540.73008 
L 216.179251 538.29072 
L 217.622016 539.5104 
L 219.064781 539.5104 
L 220.507546 537.07104 
L 221.95031 536.4612 
L 223.393075 535.24152 
L 224.83584 530.97264 
L 226.278605 532.80216 
L 229.164134 537.68088 
L 230.621184 538.90056 
L 232.049664 538.90056 
L 234.949478 536.4612 
L 236.377958 538.29072 
L 237.820723 536.4612 
L 239.277773 538.29072 
L 240.706253 537.07104 
L 242.163302 536.4612 
L 243.606067 529.75296 
L 245.034547 501.70032 
L 246.491597 483.40512 
L 247.934362 471.81816 
L 249.362842 465.10992 
L 250.819891 462.06072 
L 252.248371 462.06072 
L 253.691136 460.2312 
L 255.148186 457.79184 
L 256.576666 456.57216 
L 259.47648 451.69344 
L 260.90496 450.47376 
L 262.36201 450.47376 
L 263.804774 449.86392 
L 268.133069 451.69344 
L 269.575834 450.47376 
L 271.018598 449.86392 
L 272.461363 449.86392 
L 273.904128 450.47376 
L 275.346893 451.69344 
L 276.789658 449.86392 
L 278.232422 451.0836 
L 279.675187 450.47376 
L 282.560717 450.47376 
L 284.003482 451.0836 
L 285.460531 449.86392 
L 286.889011 450.47376 
L 288.331776 450.47376 
L 289.788826 451.0836 
L 291.217306 450.47376 
L 292.66007 450.47376 
L 294.11712 449.86392 
L 298.43113 442.54584 
L 301.330944 438.8868 
L 302.759424 438.8868 
L 304.202189 438.27696 
L 305.659238 434.61792 
L 307.087718 434.00808 
L 308.530483 434.61792 
L 309.987533 432.7884 
L 311.416013 433.39824 
L 312.873062 434.61792 
L 314.315827 438.8868 
L 315.744307 437.66712 
L 317.201357 438.27696 
L 318.644122 440.71632 
L 320.072602 462.06072 
L 322.972416 454.74264 
L 324.400896 458.40168 
L 325.857946 547.43832 
L 327.30071 560.8548 
L 328.743475 563.904 
L 330.18624 563.904 
L 331.629005 557.8056 
L 333.07177 548.04816 
L 334.514534 534.63168 
L 335.943014 524.2644 
L 337.400064 519.38568 
L 338.842829 518.77584 
L 340.285594 518.77584 
L 341.728358 516.33648 
L 343.171123 513.28728 
L 344.613888 515.1168 
L 347.499418 512.67744 
L 348.942182 512.67744 
L 350.384947 513.28728 
L 351.827712 512.67744 
L 353.270477 515.72664 
L 356.170291 520.60536 
L 357.598771 520.60536 
L 359.041536 518.77584 
L 360.498586 520.60536 
L 361.927066 521.2152 
L 363.36983 520.60536 
L 366.25536 516.94632 
L 367.71241 516.33648 
L 369.14089 516.33648 
L 370.583654 515.72664 
L 372.040704 513.89712 
L 373.469184 514.50696 
L 374.911949 513.28728 
L 376.368998 516.33648 
L 377.797478 519.99552 
L 379.240243 521.2152 
L 380.697293 521.2152 
L 382.125773 522.43488 
L 383.582822 523.04472 
L 385.025587 521.2152 
L 386.454067 499.26096 
L 387.911117 473.03784 
L 389.353882 462.06072 
L 392.239411 444.37536 
L 393.682176 434.61792 
L 395.124941 429.12936 
L 398.01047 419.37192 
L 399.453235 415.71288 
L 400.896 411.444 
L 402.338765 409.00464 
L 403.78153 408.3948 
L 406.667059 403.51608 
L 408.109824 402.2964 
L 409.552589 402.90624 
L 411.009638 402.2964 
L 413.880883 402.2964 
L 415.323648 401.68656 
L 416.766413 401.68656 
L 418.209178 401.07672 
L 419.651942 401.07672 
L 421.094707 400.46688 
L 422.551757 396.80784 
L 423.980237 397.41768 
L 425.423002 397.41768 
L 426.880051 396.80784 
L 429.751296 399.2472 
L 432.636826 399.2472 
L 434.07959 399.85704 
L 435.53664 399.2472 
L 436.96512 399.2472 
L 438.42217 396.198 
L 439.864934 395.58816 
L 442.750464 385.83072 
L 444.193229 385.83072 
L 445.621709 384.0012 
L 447.078758 384.0012 
L 448.521523 382.17168 
L 451.407053 380.952 
L 452.835533 380.952 
L 454.292582 377.9028 
L 455.735347 377.9028 
L 457.163827 376.07328 
L 458.620877 374.8536 
L 460.063642 374.8536 
L 461.492122 373.02408 
L 464.391936 373.02408 
L 465.834701 374.24376 
L 467.277466 374.24376 
L 470.162995 377.9028 
L 471.60576 389.48976 
L 473.048525 402.90624 
L 474.49129 421.81128 
L 475.934054 431.56872 
L 477.376819 431.56872 
L 478.819584 428.51952 
L 480.262349 432.17856 
L 481.719398 435.22776 
L 484.590643 432.7884 
L 486.047693 432.17856 
L 487.476173 424.25064 
L 488.918938 418.76208 
L 490.375987 418.15224 
L 491.804467 416.32272 
L 493.261517 413.88336 
L 494.704282 413.27352 
L 496.132762 412.05384 
L 497.589811 410.22432 
L 500.461056 407.78496 
L 501.918106 407.17512 
L 503.346586 405.95544 
L 504.78935 407.17512 
L 506.2464 406.56528 
L 507.67488 407.17512 
L 509.13193 406.56528 
L 510.574694 406.56528 
L 512.003174 407.17512 
L 514.902989 409.61448 
L 516.331469 410.22432 
L 517.788518 410.22432 
L 519.231283 411.444 
L 520.659763 409.61448 
L 522.116813 409.00464 
L 523.559578 409.00464 
L 525.002342 409.61448 
L 526.445107 412.05384 
L 527.887872 413.88336 
L 529.330637 413.27352 
L 533.658931 413.27352 
L 535.101696 418.15224 
L 536.558746 421.81128 
L 537.987226 420.5916 
L 539.42999 423.03096 
L 540.88704 431.56872 
L 542.31552 446.81472 
L 543.758285 457.79184 
L 545.215334 465.10992 
L 546.643814 471.20832 
L 548.086579 494.99208 
L 549.529344 526.70376 
L 550.972109 530.97264 
L 552.429158 530.97264 
L 553.857638 527.92344 
L 555.300403 526.09392 
L 556.757453 526.70376 
L 558.185933 525.48408 
L 559.628698 524.87424 
L 561.085747 528.53328 
L 562.514227 531.58248 
L 563.971277 528.53328 
L 565.414042 528.53328 
L 566.842522 526.09392 
L 568.299571 527.3136 
L 569.742336 521.2152 
L 571.170816 519.99552 
L 572.627866 521.2152 
L 574.07063 521.2152 
L 575.49911 520.60536 
L 576.95616 521.2152 
L 578.398925 520.60536 
L 579.84169 518.166 
L 581.284454 517.55616 
L 582.727219 519.38568 
L 584.169984 519.99552 
L 585.612749 524.87424 
L 587.041229 524.87424 
L 588.498278 526.70376 
L 589.941043 529.14312 
L 591.383808 529.14312 
L 592.826573 528.53328 
L 594.269338 532.19232 
L 595.712102 530.3628 
L 597.154867 531.58248 
L 602.925926 526.70376 
L 604.368691 522.43488 
L 607.268506 519.99552 
L 608.696986 516.33648 
L 611.5968 518.77584 
L 613.02528 518.77584 
L 614.468045 517.55616 
L 615.925094 521.2152 
L 617.353574 519.99552 
L 618.810624 519.38568 
L 620.253389 521.2152 
L 621.681869 520.60536 
L 623.138918 522.43488 
L 624.567398 521.82504 
L 626.010163 523.04472 
L 627.467213 526.09392 
L 628.895693 524.87424 
L 630.338458 524.87424 
L 631.795507 522.43488 
L 633.223987 516.33648 
L 634.681037 495.60192 
L 636.123802 485.23464 
L 637.552282 479.74608 
L 639.009331 476.69688 
L 640.452096 476.69688 
L 641.880576 477.30672 
L 643.337626 475.4772 
L 646.20887 475.4772 
L 647.66592 474.25752 
L 649.108685 474.25752 
L 650.55145 473.03784 
L 651.994214 468.76896 
L 653.436979 468.15912 
L 656.322509 468.15912 
L 657.765274 465.71976 
L 659.208038 462.67056 
L 660.650803 463.2804 
L 662.107853 465.10992 
L 663.536333 463.2804 
L 664.979098 466.3296 
L 666.436147 466.3296 
L 667.864627 468.15912 
L 669.307392 467.54928 
L 670.764442 468.15912 
L 673.635686 468.15912 
L 675.078451 466.93944 
L 676.521216 461.45088 
L 677.978266 454.1328 
L 679.406746 449.86392 
L 680.84951 449.86392 
L 683.73504 444.9852 
L 686.634854 441.32616 
L 688.063334 438.27696 
L 689.520384 434.61792 
L 690.963149 433.39824 
L 692.391629 430.95888 
L 695.291443 428.51952 
L 696.719923 429.12936 
L 698.176973 427.90968 
L 699.619738 424.86048 
L 701.048218 424.25064 
L 702.505267 422.42112 
L 703.948032 422.42112 
L 705.390797 423.03096 
L 706.833562 422.42112 
L 709.719091 418.76208 
L 711.161856 419.98176 
L 712.604621 419.37192 
L 714.047386 418.15224 
L 715.49015 416.32272 
L 716.9472 416.93256 
L 718.37568 415.10304 
L 719.818445 415.71288 
L 722.703974 413.27352 
L 725.603789 412.05384 
L 727.032269 409.61448 
L 728.475034 409.61448 
L 729.917798 410.22432 
L 731.360563 409.61448 
L 732.817613 410.22432 
L 734.246093 410.22432 
L 735.688858 409.00464 
L 737.145907 411.444 
L 738.574387 409.00464 
L 740.017152 409.00464 
L 742.902682 407.78496 
L 744.359731 408.3948 
L 745.802496 410.22432 
L 747.230976 411.444 
L 748.688026 409.61448 
L 750.13079 410.22432 
L 751.55927 409.61448 
L 753.01632 412.05384 
L 754.459085 415.71288 
L 755.887565 415.10304 
L 757.344614 413.88336 
L 758.787379 414.4932 
L 761.672909 413.27352 
L 763.115674 413.27352 
L 766.001203 414.4932 
L 767.443968 414.4932 
L 768.886733 413.88336 
L 770.329498 414.4932 
L 771.786547 413.27352 
L 773.215027 414.4932 
L 774.657792 413.27352 
L 776.114842 402.90624 
L 777.543322 399.85704 
L 778.986086 396.198 
L 780.443136 391.92912 
L 781.871616 391.31928 
L 783.314381 385.83072 
L 784.757146 378.51264 
L 787.65696 372.41424 
L 789.08544 368.7552 
L 791.985254 363.87648 
L 793.413734 362.04696 
L 794.856499 360.82728 
L 796.313549 357.77808 
L 797.742029 357.16824 
L 803.527373 357.16824 
L 804.970138 356.5584 
L 806.398618 356.5584 
L 807.855667 355.33872 
L 809.298432 354.72888 
L 815.069491 354.72888 
L 816.512256 355.33872 
L 817.955021 365.09616 
L 819.397786 390.70944 
L 820.84055 403.51608 
L 822.283315 407.78496 
L 823.72608 411.444 
L 825.168845 410.22432 
L 828.054374 429.12936 
L 829.497139 443.76552 
L 830.939904 464.50008 
L 832.382669 480.96576 
L 833.825434 483.40512 
L 835.268198 477.91656 
L 838.153728 475.4772 
L 839.596493 475.4772 
L 841.039258 484.6248 
L 842.496307 505.35936 
L 843.924787 512.67744 
L 845.367552 511.45776 
L 846.824602 514.50696 
L 848.253082 515.72664 
L 849.695846 520.60536 
L 851.152896 539.5104 
L 852.581376 563.904 
L 922.6 563.904 
L 922.6 563.904 
" style="fill:none;stroke:#ff0000;stroke-linecap:square;stroke-width:2.8;"/>
   </g>
   <g id="patch_8">
    <path d="M 115.2 563.904 
L 115.2 76.032 
" style="fill:none;stroke:#000000;stroke-linecap:square;stroke-linejoin:miter;stroke-width:0.8;"/>
   </g>
   <g id="patch_9">
    <path d="M 829.44 563.904 
L 829.44 76.032 
" style="fill:none;stroke:#000000;stroke-linecap:square;stroke-linejoin:miter;stroke-width:0.8;"/>
   </g>
   <g id="patch_10">
    <path d="M 115.2 563.904 
L 829.44 563.904 
" style="fill:none;stroke:#000000;stroke-linecap:square;stroke-linejoin:miter;stroke-width:0.8;"/>
   </g>
   <g id="patch_11">
    <path d="M 115.2 76.032 
L 829.44 76.032 
" style="fill:none;stroke:#000000;stroke-linecap:square;stroke-linejoin:miter;stroke-width:0.8;"/>
   </g>
   <g id="text_31">
    <!-- Data/1.15.7/ -->
    <defs>
     <path d="M 8.25 0 
L 8.25 71.09375 
L 28.328125 71.09375 
Q 37.59375 71.09375 44.71875 66.984375 
Q 51.859375 62.890625 55.734375 55.3125 
Q 59.625 47.75 59.671875 37.9375 
L 59.671875 33.40625 
Q 59.671875 23.34375 55.78125 15.765625 
Q 51.90625 8.203125 44.703125 4.140625 
Q 37.5 0.09375 27.9375 0 
z
M 17.625 63.375 
L 17.625 7.671875 
L 27.484375 7.671875 
Q 38.328125 7.671875 44.359375 14.40625 
Q 50.390625 21.140625 50.390625 33.59375 
L 50.390625 37.75 
Q 50.390625 49.859375 44.703125 56.5625 
Q 39.015625 63.28125 28.5625 63.375 
z
" id="Roboto-Regular-44"/>
     <path d="M 8.640625 -6.109375 
L 0.875 -6.109375 
L 30.5625 71.09375 
L 38.28125 71.09375 
z
" id="Roboto-Regular-2f"/>
     <path d="M 7.03125 4.734375 
Q 7.03125 7.078125 8.421875 8.640625 
Q 9.8125 10.203125 12.59375 10.203125 
Q 15.375 10.203125 16.8125 8.640625 
Q 18.265625 7.078125 18.265625 4.734375 
Q 18.265625 2.484375 16.8125 0.96875 
Q 15.375 -0.53125 12.59375 -0.53125 
Q 9.8125 -0.53125 8.421875 0.96875 
Q 7.03125 2.484375 7.03125 4.734375 
z
" id="Roboto-Regular-2e"/>
    </defs>
    <g transform="translate(417.915 70.032)scale(0.192 -0.192)">
     <use xlink:href="#Roboto-Regular-44"/>
     <use x="65.576172" xlink:href="#Roboto-Regular-61"/>
     <use x="119.970703" xlink:href="#Roboto-Regular-74"/>
     <use x="152.636719" xlink:href="#Roboto-Regular-61"/>
     <use x="207.03125" xlink:href="#Roboto-Regular-2f"/>
     <use x="248.242188" xlink:href="#Roboto-Regular-31"/>
     <use x="304.394531" xlink:href="#Roboto-Regular-2e"/>
     <use x="330.712891" xlink:href="#Roboto-Regular-31"/>
     <use x="386.865234" xlink:href="#Roboto-Regular-35"/>
     <use x="443.017578" xlink:href="#Roboto-Regular-2e"/>
     <use x="469.335938" xlink:href="#Roboto-Regular-37"/>
     <use x="525.488281" xlink:href="#Roboto-Regular-2f"/>
    </g>
   </g>
  </g>
 </g>
 <defs>
  <clipPath id="pd4d2102336">
   <rect height="487.872" width="714.24" x="115.2" y="76.032"/>
  </clipPath>
 </defs>
</svg>
